<?xml version="1.0" encoding="UTF-8"?>
<svg id="Logo" xmlns="http://www.w3.org/2000/svg" xmlns:xlink="http://www.w3.org/1999/xlink" viewBox="0 0 1024 1024">
  <defs>
    <style>
      .cls-1 {
        fill: #595a5a;
      }

      .cls-2 {
        fill: #595959;
      }

      .cls-3 {
        fill: url(#linear-gradient);
      }
    </style>
    <linearGradient id="linear-gradient" x1="518.21" y1="0" x2="518.21" y2="881.13" gradientUnits="userSpaceOnUse">
      <stop offset="0" stop-color="#404040"/>
      <stop offset="1" stop-color="#2c2c2c"/>
    </linearGradient>
  </defs>
  <path id="Circle" class="cls-1" d="M512,1.29C229.23,1.29,0,230.52,0,513.29s229.23,512,512,512,512-229.23,512-512S794.77,1.29,512,1.29ZM512,839.68c-180.97,0-327.68-146.71-327.68-327.68s146.71-327.68,327.68-327.68,327.68,146.71,327.68,327.68-146.71,327.68-327.68,327.68Z"/>
  <path id="Arc" class="cls-3" d="M1013.05,404.5C973.12,208.17,819.81,53.29,623.8,11.83,335.2-49.2,76.46,133.05,14.22,391.82c-7.85,32.62,10.7,65.81,42.53,76.41l6.19,2.06c57.19,19.04,119.75-10.75,139.62-67.65,44.9-128.58,167.67-220.62,311.8-219.6,102.41.72,194.32,49.12,254.12,124.2l-146.23,68.19c-18.35-16.28-40.53-28.96-65.94-36.35-82.28-23.92-170.67,17.7-204.56,96.4-39.66,92.1,7.56,197.4,101.44,229.69,87.59,30.13,184.32-15.96,216.18-102.94,6.08-16.61,9.42-33.55,10.26-50.33l152.52-71.12c4.12,18.86,6.63,38.31,7.33,58.23,2.74,78.63-22.24,151.33-65.92,209.11-41.17,54.47-24.16,132.74,36.34,164.39l3.08,1.61c24.12,12.62,53.86,7.93,72.49-11.93,108.18-115.31,163.59-280.71,127.59-457.7Z"/>
  <path id="Rect" class="cls-2" d="M242.11,715.92l-62.52-134.08,310.05-144.58c37.02-17.26,81.03-1.25,98.3,35.78h0c17.26,37.02,1.25,81.03-35.78,98.3l-310.05,144.58Z"/>
</svg>