<?xml version="1.0" encoding="UTF-8"?>
<svg id="Logo" xmlns="http://www.w3.org/2000/svg" xmlns:xlink="http://www.w3.org/1999/xlink" viewBox="0 0 1024 1024">
  <defs>
    <style>
      .cls-1 {
        fill: #595a5a;
      }

      .cls-2 {
        fill: #595959;
      }

      .cls-3 {
        fill: url(#linear-gradient);
      }
    </style>
    <linearGradient id="linear-gradient" x1="517.5" y1="58.37" x2="517.5" y2="839.05" gradientUnits="userSpaceOnUse">
      <stop offset="0" stop-color="#404040"/>
      <stop offset="1" stop-color="#2c2c2c"/>
    </linearGradient>
  </defs>
  <path id="Circle" class="cls-2" d="M512,58.37c-250.53,0-453.63,203.1-453.63,453.63s203.1,453.63,453.63,453.63,453.63-203.1,453.63-453.63S762.53,58.37,512,58.37ZM512,801.18c-160.34,0-290.32-129.98-290.32-290.32S351.66,220.54,512,220.54s290.32,129.98,290.32,290.32-129.98,290.32-290.32,290.32Z"/>
  <path id="Arc" class="cls-3" d="M955.93,416.75c-35.38-173.95-171.21-311.17-344.88-347.9C355.36,14.78,126.11,176.25,70.96,405.52c-6.95,28.9,9.48,58.31,37.68,67.7l5.48,1.83c50.67,16.87,106.1-9.52,123.71-59.94,39.78-113.92,148.56-195.47,276.26-194.57,90.74.64,172.17,43.52,225.15,110.04l-129.56,60.42c-16.26-14.43-35.91-25.66-58.42-32.2-72.9-21.19-151.22,15.69-181.24,85.41-35.13,81.6,6.7,174.9,89.88,203.51,77.61,26.69,163.3-14.14,191.53-91.2,5.39-14.72,8.35-29.73,9.09-44.59l135.13-63.01c3.65,16.71,5.88,33.95,6.49,51.59,2.43,69.66-19.7,134.08-58.4,185.27-36.48,48.26-21.4,117.6,32.2,145.65l2.73,1.43c21.37,11.18,47.72,7.02,64.23-10.57,95.85-102.16,144.94-248.71,113.04-405.52Z"/>
  <path id="Rect" class="cls-1" d="M272.88,692.67l-55.39-118.79,274.71-128.1c32.8-15.3,71.8-1.1,87.09,31.7h0c15.3,32.8,1.1,71.8-31.7,87.09l-274.71,128.1Z"/>
</svg>