<svg xmlns="http://www.w3.org/2000/svg" width="288" height="162" fill="none"><path fill="#000" d="M69.09 134.65c12.9 6.44 41.24 19.08 57.66 25.04 5.93 2.15 20.89 3.13 27.76.27 12.79-5.34 42.3-20 51.45-25.64 3.56-2.2 3.13-2.86 1.62-5.15-3.43-5.19-4.25-6.47-7.18-7.61l-52.6-13.63c-6-2.32-17.6 2.28-23.05 4.38 0 0-62.1-6-75.1-5.52-9.4.34-19.8 1-22.1 1.2-1.47.1-1.85 1.13-1.32 1.5 3.08 2.18 36.16 16.5 41.41 18.55 1.28.5.09 1.1-.17 1.27-.73.45-1.87 1.2-2.01 1.6-.45 1.2.1 1.98 3.63 3.74Z"/><path fill="#3D2ED3" d="M73.68 134.93c12.47 7.22 42.44 20.15 55.35 25.23 5.87 2.32 18.6 2.66 25.48-.2 12.79-5.34 42.3-20 51.45-25.64 3.56-2.2 3.13-2.86 1.62-5.15-3.43-5.19-4.25-6.47-7.18-7.61l-52.6-13.63c-6-2.32-15.15-2.52-20.6-.42l-53.52 18.16c-.73 1.1-2.73 3.62-3.02 5.3-.2 1.18-.5 1.92 3.02 3.96Z"/><path fill="#473BCF" d="m161.24 150.18-5.56 2.5 2.03 5.9c1.75-.77 3.67-1.63 5.73-2.58l-2.2-5.82Z"/><path fill="#12014A" d="m109.62 144.35-36.66-16.71-2.4 4.37c.08.74.7 1.52 3.12 2.92a248.66 248.66 0 0 0 17.44 8.81l15.42 6.94 3.08-6.34v.01Z"/><path fill="#2F09A2" d="m124.03 158.15 2.46-5.9-46-20.54-2.94 5.34c9.53 5.05 33.92 16.2 46.48 21.1Z"/><path fill="#FF4CD2" d="m74.25 125.47-.58.2c-.73 1.1-2.73 3.62-3.02 5.3-.09.55-.2 1 .05 1.53l3.1-4.2.45-2.84Z"/><path fill="#473BCF" d="m164.81 148.43-1.63.76 2.23 5.9 1.63-.77-2.23-5.89ZM149.51 154.79l-2.66.45 1.01 6.36c.96-.13 1.88-.28 2.76-.48l-1.1-6.33Z"/><path fill="#FF4CD2" d="m204.94 126.8 3.63 5.26c.37-.82-.13-1.6-.99-2.9-1.55-2.34-2.57-3.89-3.49-4.98l.85 2.63Z"/><path fill="#7D8BFF" d="M77.3 130.53c13.06 5.97 39.43 18.5 53.04 23.08 7.19 2.41 16.44 2.75 23.24-.13 12.67-5.34 36.64-16.8 48.96-22.9 3.2-1.58 3.37-3.32 2.12-5.56-1.44-2.58-2.2-2.82-4.25-3.56l-52.43-16.55c-5.91-2.27-14.57-1.99-19.96.11 0 0-47.08 15.62-51.18 17.73-.6.32-1.84.38-3.2 3.06-.8 1.6-.95 2.62 3.66 4.73Z"/><path fill="#A0A9FA" d="m149.03 152.62-2.58.43.43 2.18c.9-.12 1.8-.27 2.67-.47l-.52-2.14ZM159.74 148.23l-5.4 2.24 1.3 2.14a511 511 0 0 0 5.55-2.45l-1.45-1.93Z"/><path fill="#FF4CD2" d="m200.42 121.45-16.17-5.1-5.26 11.1h26.38a4.52 4.52 0 0 0-.71-2.43c-1.44-2.58-2.2-2.82-4.25-3.56Z"/><path fill="#A0A9FA" d="m163.64 147.05-1.46.72 1.03 1.48 1.6-.73-1.17-1.47Z"/><path fill="#FF4CD2" d="M97.52 115.27c-10.01 3.43-19.04 6.6-20.73 7.48-.6.31-1.84.38-3.2 3.06-.47.92-.68 1.88.16 2.55l1.49-1.03 13.28-6.76 10.34-3.49-1.34-1.8Z"/><path fill="#5052FF" d="M75.86 128.35c11.83 6.1 41.76 19.26 54.4 23.48 6.69 2.22 16.89 2.53 23.23-.16 11.8-5.01 38.64-16.96 49.97-22.96 1.44-.76 1.11-1.88.7-3.2a4.72 4.72 0 0 0-2.78-3.2c-10.23-3.58-54.33-16.64-54.33-16.64-5.5-2.08-15.29-2.34-20.31-.37l-49.59 18.12c-1.38.52-1.57 1.15-2.3 2.23-.54.77-.36 2 1 2.7h.01Z"/><path fill="#000" d="m104.8 133.47 3.98-15.58-12.55-1.44-19.06 6.97c-.55.2-.9.42-1.18.67l28.8 9.38Z"/><path fill="#3D3BD2" d="M91.42 122.03c.04 10.05 28.15 17.56 47.42 17.51 19.27-.04 46.64-6.65 49.14-16.33a4.94 4.94 0 0 0-.55-3.37c-.62-1.21-1.88-2.58-3.39-2.66-3.83-.2-24.38-5.2-44.68-5.2-20.58 0-39.09.36-45.64 5.24a6.5 6.5 0 0 0-2.3 4.81Z"/><path fill="#000" d="M91.42 122.03c.01 3.35-2.7 2.4 2.16 5l5.9-4.07-4.01-6.8c-.65.33-1.24.68-1.75 1.06a6.5 6.5 0 0 0-2.3 4.81Z"/><path fill="#3B26C6" d="M187.98 123.2a4.3 4.3 0 0 0-.13-2.34l-3.13-3.55a2.62 2.62 0 0 0-.67-.13c-.09 0-.19 0-.3-.02l-2.86 6s1.93.05 3.12 1.66c.63.86.9 2.2.99 2.77 1.54-1.37 2.59-2.84 2.98-4.38Z"/><path fill="#2F09A2" d="M96.84 124.58s-1.15-.13-2.16 1.04c-.4.46-.72.92-.96 1.31 4.01 4.25 9.12 6 17.04 8.53l1.35-3.56s-4.94-1.4-8.94-3.22c-4-1.82-6.34-4.1-6.34-4.1Z"/><path fill="#180357" d="M101.79 130.15c.45-.83.94-1.3 1.23-1.54a24.26 24.26 0 0 1-6.18-4.03s-1.15-.13-2.16 1.04c-.4.46-.72.92-.96 1.31 2.05 2.18 4.4 3.7 7.27 5 .23-.54.6-1.42.8-1.78Z"/><path fill="#9CACFF" d="M187.44 119.84c-.59-1.14-1.73-2.4-3.13-2.62l-.62 1.67s2.06-.24 3.12 1.46a8.76 8.76 0 0 1 1.15 2.94l.02-.09a4.94 4.94 0 0 0-.55-3.37v.01Z"/><path fill="#3B26C6" d="M125.09 134.72a158.65 158.65 0 0 1-12.97-2.82l-1.35 3.56c2.96.69 7.76 2.05 13.02 2.87 5.73.9 11.96 1.22 15.58 1.17v-3.6s-8.1-.23-14.28-1.18Z"/><path fill="#000" d="m130.27 4.22-2.03-.66-33.77 110.22c-.14 1.83-.06 3.35.02 3.81.4 2.49 1.35 4.13 4.05 6.33l31.73-119.7Z"/><path fill="#FF4CD2" d="M130.57 1.98h-.82s-1.7.5-2.4 2.69c-7.02 21.54-21.09 67.2-29.54 95.22-1.02 3.38-.97 3.66-2.67 9.83-.73 2.68-.77 7.06-.77 7.06-.23.14-.44.3-.64.44a6.5 6.5 0 0 0-2.3 4.81c0 .48.07.95.19 1.42 0-1.05.13-2.13.53-2.8 1-1.65 2.11-2.37 2.48-2.64.35-.25.59.1.57-1.36-.02-4.3 3-13.04 3.91-16.35 5.9-21.51 24.43-80.57 29.03-95.17.64-2.05 4.41-2.25 4.41-2.25l-1.98-.9Z"/><path fill="#3B26C6" d="M140.06 135.13c26.52-.2 44.43-9.01 44.27-19.33a46.03 46.03 0 0 0-.86-7.24c-5.36-19.3-27.48-90.36-32-103.5-.58-1.66-2.54-2.33-2.54-2.33l-5.3-.02-12.81 2.65-27.3 122.58c8.24 3.94 26.58 7.27 36.54 7.2Z"/><path fill="#180357" d="M97.69 124.22c.82.74 3.29 2.74 5.84 3.72l27.8-122.1-1.5-1.43S100.72 108 99.66 113.52c-1.16 6.06-1.97 10.71-1.97 10.71Z"/><path fill="#2F09A2" d="M103.52 127.94c1.5.76 6.67 2.52 8.92 3.15L133.86 6.24l-2.47-.63-27.86 122.33Z"/><path fill="#3D3BD2" d="M141.99 136.1s16.37-.24 28.6-5.53c2.82-1.22 10.77-6.74 10.77-6.74s.7-7.78-.93-14c-6.68-25.37-28.9-99.78-28.9-99.78s-.87-3.74-1.5-4.4c-.5-.5-1-.64-1-.64L138.7 6.38l3.3 129.73Z"/><path fill="#524FF7" d="M167.54 135.54s-.45-1.28-1.03-2.02c-.57-.74-1.61-1.6-1.61-1.6s2.68-.53 4.4-1.13c1.49-.5 2.92-1.25 2.92-1.25s1.21 1.15 1.52 1.61c.85 1.31.87 2.14.87 2.14s-2.3.83-3.08 1.08c-.99.32-4 1.17-4 1.17ZM164.3 130.36s2.45-.3 4.21-.89c1.77-.58 3.06-1.3 3.06-1.3L146.49 6l-3.24.52 21.06 123.84Z"/><path fill="#9CACFF" d="M151.97 4.39c-.52-1.7-2.53-2.34-2.53-2.34h-1.8l.75 1.27s2.34 0 2.95 1.4c.46 1.08 1.58 4.82 2.05 6.33 6.79 21.8 25.05 80.5 28.92 95.54 1.82 7.07 1.07 11.54 1.09 13.62a9.55 9.55 0 0 0 1.44-5.1 46.14 46.14 0 0 0-.86-7.23c-5.36-19.3-25.82-83.47-32-103.5Z"/><path fill="#FFAAF3" d="m120.28 26.85-2.15 6.86c.26.2.54.42.88.61l1.6-5.12.58-1.88-.91-.47Z"/><path fill="#927FFF" d="m123.55 28.27-.46 1.77-1.39 5.48c1.9.69 4.1 1.27 6.85 1.73l1.26-7.4c-2.3-.41-4.37-.95-6.26-1.57Z"/><path fill="#806DEB" d="m123.19 28.14-2.02 7.18c.7.28 2.3.79 3.22 1.01l1.67-7.3c-.86-.24-2.16-.64-2.88-.9Z"/><path fill="#C3B9FF" d="m156.85 27.96 2.2 7.36c.56-.22 1.3-.56 1.62-.8l-2.24-7.25c-.56.25-.97.41-1.58.69ZM129.8 29.85l-1.25 7.4a63.9 63.9 0 0 0 10.93.99l-.2-7.59c-2.8.07-7.47-.5-9.47-.8Z"/><path fill="#DDD8FF" d="m139.27 30.66.21 7.58c.9.04 2.9.02 4.8-.11 1.92-.14 2.55-.23 4.29-.43l-1.3-7.43c-2.48.25-5.1.43-8 .4ZM151.35 29.67l1.5 7.34a44.13 44.13 0 0 0 6.21-1.7l-2.2-7.35c-1.26.47-2.88 1.13-5.5 1.7Z"/><path fill="#EEECFF" d="m147.28 30.27 1.29 7.43c1.5-.2 2.82-.43 4.28-.7l-1.5-7.33c-1.25.22-2.82.44-4.07.6Z"/><path fill="#D9DCFF" d="M160.67 34.52c.2-.12.47-.25.64-.36l-2.27-7.2-.61.3 2.24 7.26Z"/><path fill="#5C45DF" d="M123.19 28.14c-.86-.3-1.3-.5-2-.82L119 34.3c.72.41 1.12.63 2.16 1.01l2.02-7.18Z"/><path fill="#DDD8FF" d="M155.15 14.56a37.42 37.42 0 0 1-15.35 3.21c-6.64 0-12.07-1.18-15.67-3.08l-2.19 6.89a46.38 46.38 0 0 0 18.02 3.03c8.03-.2 13.73-1.9 17.27-3.41l-2.08-6.63Z"/><path fill="#D9DCFF" d="m157.23 21.2-2.08-6.64-.58.26 2.06 6.61.6-.24Z"/><path fill="#927FFF" d="m130.8 24 1.18-6.85a37.75 37.75 0 0 1-5.35-1.38l-1.9 6.78A47.2 47.2 0 0 0 130.8 24Z"/><path fill="#806DEB" d="m127.37 23.3 1.54-6.82c-.76-.2-1.43-.4-2.28-.7l-1.9 6.78c.82.25 1.78.57 2.64.74Z"/><path fill="#C3B9FF" d="m156.63 21.44-2.06-6.61c-.5.2-.86.36-1.44.58l1.99 6.62c.7-.23.74-.28 1.51-.58ZM139.14 24.61l-.18-6.86c-2.3-.01-5.14-.33-6.97-.6L130.8 24c2.07.35 5.57.71 8.34.61Z"/><path fill="#DDD8FF" d="m155.12 22.02-1.99-6.62c-1.2.39-3.4 1.1-4.47 1.34l1.44 6.74a36.55 36.55 0 0 0 5.03-1.46h-.01Z"/><path fill="#EEECFF" d="m150.1 23.48-1.45-6.73c-1.01.27-2.42.52-3.55.67l1.14 6.72c1.24-.16 2.75-.4 3.85-.66Z"/><path fill="#FFAAF3" d="m122.88 21.93.36-1.16 1.77-5.65c-.31-.14-.6-.28-.88-.43l-2.19 6.89.94.35Z"/><path fill="#5C45DF" d="M122.88 21.93c.64.23 1.11.4 1.85.63l1.9-6.78c-.6-.21-1.1-.42-1.62-.66l-1.77 5.65-.36 1.16Z"/><path fill="#DDD8FF" d="M168.22 67.48s-3.03.95-4.33.24c-2.11-1.16-2.8-6.08-2.8-6.08s-4.83 1.3-7.94 1.72c-3.27.43-9.38.56-9.38.56s.16 4.17-2.68 6.38c-2.35 1.82-7.1 2.02-7.1 2.02s.68 12.7 4.65 18.2c5.79 8.04 18.95 11.05 18.95 11.05s8.55-6.12 11.16-15.73c2.34-8.6-.53-18.34-.53-18.34v-.02Zm-1.68 17.66c-3.24 9.6-9.49 12.98-9.49 12.98s-9.96-2.23-14.73-8.65c-4.1-5.52-4.37-14.67-4.37-14.67s3.8-.4 6.1-2.37a9.3 9.3 0 0 0 2.96-5.59s2.67.1 6.44-.32c3.5-.38 6.3-1.3 6.3-1.3s1.35 3.73 3.1 4.47c1.78.75 3.77.36 3.77.36s2.35 7.87-.09 15.1v-.01Z"/><path fill="#EEECFF" d="m152.93 63.38.52 3.14c2.22-.25 4.16-.7 5.28-1l-.64-3.13c-1.56.36-3.45.76-4.94.96l-.22.03ZM164.61 94.29l-.68-3.47a23.38 23.38 0 0 1-5.31 6.2l.53 3.26a35.7 35.7 0 0 0 5.47-6v.01Z"/><path fill="#C3B9FF" d="M140.68 86.7c-2.54-5.36-2.73-11.9-2.73-11.9s1.04-.12 2.37-.5l-.1-3.46c-2.49 1.31-6.24 1.47-6.24 1.47s.69 12.7 4.66 18.21a19 19 0 0 0 2.23 2.55l-.19-6.37Z"/><path fill="#835FEA" d="M139.65 7.21c6.13 0 11.1-1.58 11.1-3.54S145.77.12 139.64.12s-11.1 1.59-11.1 3.55c0 1.96 4.97 3.54 11.1 3.54Z"/><path fill="#B058E1" d="M131.17 5.95c1.61.61 3.85 1.04 6.4 1.2l.15-1.7L132.09 4l-.92 1.95Z"/><path fill="#FF4CD2" d="M128.55 3.67c0 .88 1.02 1.69 2.7 2.3l2.32-4.82 5.65-1.01V.13h-.01c-5.93.07-10.66 1.63-10.66 3.53Z"/><path fill="#AF81ED" d="M130.35 2.9c0 1.52 4.16 2.76 9.3 2.76 5.13 0 9.29-1.24 9.29-2.76 0-1.53-4.14-2.9-9.27-2.9-5.14 0-9.32 1.37-9.32 2.9Z"/><path fill="#2D35AD" d="M139.65 4.62c2.42 0 4.38-.64 4.38-1.42 0-.78-1.96-1.4-4.38-1.4s-4.38.62-4.38 1.4c0 .78 1.96 1.42 4.38 1.42Z"/><path fill="#006" d="M139.69 4.62c1.33 0 2.41-.37 2.41-.81 0-.45-1.08-.81-2.41-.81-1.34 0-2.42.36-2.42.8 0 .45 1.08.82 2.41.82Z"/><path fill="#180357" d="m101.15 125.41-1.73 2.48-3.14-2.7 2.02-1.43 2.85 1.65Z"/></svg>