<svg width="443" height="443" viewBox="0 0 443 443" fill="none" xmlns="http://www.w3.org/2000/svg">
<g clip-path="url(#clip0_44_30)">
<path d="M443 221.5C443 343.831 343.831 443 221.5 443C99.1691 443 0 343.831 0 221.5C0 99.1691 99.1691 0 221.5 0C343.831 0 443 99.1691 443 221.5ZM88.0751 221.5C88.0751 295.188 147.811 354.925 221.5 354.925C295.189 354.925 354.925 295.188 354.925 221.5C354.925 147.811 295.189 88.075 221.5 88.075C147.811 88.075 88.0751 147.811 88.0751 221.5Z" fill="#828282"/>
<path d="M292.475 221.738C292.475 260.805 260.805 292.475 221.738 292.475C206.464 292.475 192.321 287.634 180.759 279.403L99.204 328.406C213.071 259.189 140.312 237.528 65.4865 281.979L151.513 230.289C151.175 227.486 151.001 224.632 151.001 221.738C151.001 182.671 182.671 151.001 221.738 151.001C236.81 151.001 250.781 155.714 262.257 163.748L318.541 129.929C308.425 119.209 296.562 110.196 283.404 103.305C262.883 92.5569 239.917 87.3371 216.767 88.1588C193.616 88.981 171.078 95.816 151.371 107.992C131.664 120.168 115.466 137.264 104.372 157.6C100.352 164.97 97.0514 172.673 94.4977 180.602C87.043 203.753 68.385 224.336 44.0682 224.786C19.7508 225.237 -0.771072 205.707 3.59034 181.78C7.80789 158.642 15.7009 136.23 27.0546 115.419C45.4719 81.6595 72.362 53.2771 105.078 33.0639C137.794 12.8507 175.21 1.5037 213.642 0.139448C252.074 -1.2248 290.2 7.44037 324.267 25.2823C358.334 43.1247 387.169 69.5294 407.934 101.898C428.699 134.267 440.679 171.484 442.696 209.888C444.712 248.291 436.694 286.558 419.433 320.923C408.791 342.107 394.864 361.358 378.246 378.002C361.062 395.213 333.322 389.466 319.844 369.221C306.366 348.976 312.66 321.917 327.444 302.605C332.508 295.991 336.96 288.891 340.729 281.389C351.127 260.689 355.956 237.638 354.742 214.505C354.103 202.346 351.807 190.385 347.956 178.941L291.894 212.626C292.278 215.609 292.475 218.65 292.475 221.738ZM99.204 328.406C97.8064 329.256 96.3807 330.113 94.9269 330.976L99.204 328.406Z" fill="url(#paint0_linear_44_30)"/>
<path d="M224.615 186.365C238.145 178.236 255.704 182.613 263.834 196.143C271.963 209.673 267.586 227.232 254.055 235.362L94.9268 330.976L65.4863 281.98L224.615 186.365Z" fill="#828282"/>
</g>
<defs>
<linearGradient id="paint0_linear_44_30" x1="223.001" y1="0" x2="223.001" y2="388.178" gradientUnits="userSpaceOnUse">
<stop stop-color="#5C5C5C"/>
<stop offset="1" stop-color="#333333"/>
</linearGradient>
<clipPath id="clip0_44_30">
<rect width="443" height="443" fill="white"/>
</clipPath>
</defs>
</svg>
